<?xml version="1.0" encoding="utf-8"?>
<!-- Generator: Adobe Illustrator 16.0.0, SVG Export Plug-In . SVG Version: 6.00 Build 0)  -->
<!DOCTYPE svg PUBLIC "-//W3C//DTD SVG 1.1//EN" "http://www.w3.org/Graphics/SVG/1.1/DTD/svg11.dtd">
<svg version="1.1" id="Layer_1" xmlns="http://www.w3.org/2000/svg" xmlns:xlink="http://www.w3.org/1999/xlink" x="0px" y="0px"
	 width="180px" height="120px" viewBox="0 0 180 120" enable-background="new 0 0 180 120" xml:space="preserve">
<linearGradient id="SVGID_1_" gradientUnits="userSpaceOnUse" x1="217.6602" y1="-292.8716" x2="389.8604" y2="-292.8716" gradientTransform="matrix(1 0 0 -1 -217.6602 -219.96)">
	<stop  offset="0" style="stop-color:#80CCFF"/>
	<stop  offset="1" style="stop-color:#0099FF"/>
</linearGradient>
<path fill="url(#SVGID_1_)" d="M0.193,79.706C1.28,66.548,6.969,53.92,17.18,45.666c9.27-7.495,24.416-13.289,36.536-12.559
	c17.93,1.075,34.519,7.039,52.816,6.439c21.12-0.689,42.184-6.884,62.11-13.499c3.719-1.229,4.394,2.86,2.621,6.068
	c-2.926,5.295-3.803,8.239-7.32,13.964c-3.145,5.116-7.602,10.161-11.928,14.151c-7.733,7.152-17.625,10.963-28.084,10.665
	c0.256-2.019,0.51-4.027,0.764-6.049c9.177,2.991,18.4,4.521,28.041,5.021c3.183,0.16,2.906,2.943,1.605,5.727
	c-1.188,2.537-2.605,4.826-7.113,7.756c-3.646,2.373-7.68,4.553-11.703,5.812c-11.065,3.467-23.756,0.612-34.918-0.947
	c1.15-1.524,2.304-3.046,3.453-4.567c4.691,7.619,11.752,11.285,19.406,15.357c3.1,1.646,1.107,5.007-2.338,5.682
	c-8.008,1.56-16.313,1.987-23.994,1.381c-8.141-0.644-15.949-4.43-21.771-10.002c1.724-1.02,3.441-2.041,5.166-3.061
	c1.621,6.666,4.548,11.729,9.479,16.504c2.134,2.065,0.376,4.991-2.155,5.324c-17.187,2.25-29.756-7.784-43.088-17.102
	c1.547-1.209,3.091-2.42,4.629-3.625c1.698,5.182,2.574,9.473,6.61,13.496c1.773,1.768,0.895,4.602-1.368,5.366
	C19.519,124.9-0.597,66.854,36.304,55.055c13.421-4.29,33.772,11.007,22.303,24.527C47.3,92.92,28.737,74.516,46.708,66.802
	c2.591-1.112,4.453,3.275,1.953,4.523c-4.5-0.702-7.774,7.103,0.718,8.259c4.682-1.014,7.059-7.197,5.042-11.538
	c-2.199-4.739-7.641-7.044-12.537-7.239c-10.119-0.407-18.35,9.133-19.305,18.389c-1.704,16.478,13.661,33.146,30.303,27.607
	c-0.459,1.787-0.913,3.58-1.369,5.367c-4.838-4.873-6.15-9.924-8.219-16.328c-0.812-2.516,2.322-5.242,4.629-3.619
	c12.306,8.661,23.831,18.484,39.884,16.389c-0.721,1.775-1.436,3.555-2.156,5.326c-5.719-5.549-9.206-11.482-11.095-19.232
	c-0.726-2.996,2.87-5.266,5.163-3.063c7.34,7.021,19.61,10.274,29.333,8.894c11.396-1.616,8.365-3.421,13.677-1.835
	c-0.775,1.892-1.56,3.785-2.336,5.676c-8.697-4.631-16.355-8.988-21.644-17.564c-1.563-2.541,0.938-4.928,3.453-4.568
	c12.571,1.764,25.485,4.594,37.385-1.123c10.369-4.979,7.32-7.701,11.603-10.814c0.535,1.907,1.072,3.818,1.604,5.729
	c-10.188-0.533-19.957-2.063-29.678-5.232c-3.188-1.039-2.845-6.15,0.76-6.049c15.293,0.438,27.886-10.746,35.703-22.945
	c3.633-5.67,5.899-9.985,8.274-15.409c0.877,2.021,1.744,4.047,2.619,6.072c-29.084,9.966-58.164,17.281-89.083,13.156
	c-16.344-2.185-31.358-9.035-47.363-1.502c-4.562,2.144-9.423,5.488-13.158,8.831C3.781,68.246-0.951,101.063,13.465,120
	C3.383,109.355-1.007,94.21,0.193,79.706z"/>
</svg>
