<?xml version="1.0" encoding="utf-8"?>
<!-- Generator: Adobe Illustrator 16.0.0, SVG Export Plug-In . SVG Version: 6.00 Build 0)  -->
<!DOCTYPE svg PUBLIC "-//W3C//DTD SVG 1.1//EN" "http://www.w3.org/Graphics/SVG/1.1/DTD/svg11.dtd">
<svg version="1.1" id="Layer_1" xmlns="http://www.w3.org/2000/svg" xmlns:xlink="http://www.w3.org/1999/xlink" x="0px" y="0px"
	 width="180px" height="120px" viewBox="0 0 180 120" enable-background="new 0 0 180 120" xml:space="preserve">
<linearGradient id="SVGID_1_" gradientUnits="userSpaceOnUse" x1="223.2822" y1="-284.7549" x2="396.6602" y2="-284.7549" gradientTransform="matrix(1 0 0 -1 -217.6602 -219.96)">
	<stop  offset="0" style="stop-color:#540000"/>
	<stop  offset="1" style="stop-color:#FF0012"/>
</linearGradient>
<linearGradient id="SVGID_2_" gradientUnits="userSpaceOnUse" x1="222.2822" y1="-284.7549" x2="397.6602" y2="-284.7549" gradientTransform="matrix(1 0 0 -1 -217.6602 -219.96)">
	<stop  offset="0" style="stop-color:#540000"/>
	<stop  offset="1" style="stop-color:#FB0000"/>
</linearGradient>
<path fill="url(#SVGID_1_)" stroke="url(#SVGID_2_)" stroke-width="2" stroke-miterlimit="10" d="M172.164,74.528
	c-10.552-16.339-30.876-34.971-50.651-43.181c-0.838-0.35-2.018-0.311-2.742,0.206C83.914,56.269,36.488,31.932,7.545,11.386
	c-2.309-1.64-2.621-0.543-0.489,1.439c13.066,12.152,15.357,31.582,7.758,47.881c-0.771,1.656,0.683,3.109,2.637,3.145
	c25.838,0.459,44.188,15.891,39.753,35.742c-0.342,1.531-1.585,5.637,3.839,4.6c19.853-3.805,37.998-1.086,49.922,12.396
	c1.082,1.221,3.271,1.063,4.017-0.303c4.154-7.609,13.568-11.283,22.32-14.445c7.609-2.75,22.776-3.084,28.563,3.916
	c1.714,2.07,2.942,1.33,1.233-0.746c-6.578-7.982-19.75-12.186-29.223-10.105c-6.05,1.332-19.596,6.502-24.956,15.105
	C100.397,98.162,80.7,91.495,62.811,96.592c2.466-20.218-12.429-36.847-37.568-38.823c5.074-14.279-1.207-28.514-11.652-40.26
	c28.304,19.564,67.451,41.982,100.527,26.416c-1.762,1.433-3.201,2.8-4.782,4.456c-3.792,3.98-8.744,6.762-12.362,9.331
	c-0.588,0.416-0.121,0.627,0.676,0.281c4.681-2.058,9.269-4.147,13.481-6.865c2.153-1.387,5.302-3.271,7.685-5.377
	c-0.199,1.775-0.56,4.031-1.311,7c-1.58,6.241-2.796,9.572-4.703,15.729c-0.271,0.879,0.137,1.436,0.557,0.664
	c3.024-5.511,5.807-10.98,7.674-16.889c0.357-1.133,1.051-2.815,1.646-4.64c0.678,2.987,1.514,6.271,1.705,9.143
	c0.465,7.06,1.28,13.405,1.407,20.468c0.017,0.897,0.494,1.112,0.631,0.258c1.152-7.183,1.935-14.332,1.521-21.62
	c-0.207-3.662,0.127-9.977-2.17-13.992c14.893,7.601,27.353,19.352,37.302,31.212c11.6,13.826,18.454,33.326,0.702,45.129
	c-1.088,0.726-0.038,1.123,1.072,0.42C182.556,107.399,182.017,89.778,172.164,74.528z"/>
</svg>
